<svg width="32" height="32" viewBox="0 0 32 32" fill="none" xmlns="http://www.w3.org/2000/svg">
<path d="M16 30C23.732 30 30 23.732 30 16C30 8.26801 23.732 2 16 2C8.26801 2 2 8.26801 2 16C2 23.732 8.26801 30 16 30Z" fill="#AF124B"/>
<path d="M16 28.112C22.6894 28.112 28.1122 22.6893 28.1122 15.9999C28.1122 9.31059 22.6894 3.88782 16 3.88782C9.31072 3.88782 3.88794 9.31059 3.88794 15.9999C3.88794 22.6893 9.31072 28.112 16 28.112Z" fill="#E10555"/>
<path d="M18.9497 11.4398C18.5924 11.4398 18.2662 11.2366 18.1083 10.9162C17.5783 9.8392 16.4821 9.15686 15.2819 9.15686H9.4496V18.2528H11.951L9.85384 20.779C9.1455 21.6323 9.1711 22.8762 9.91405 23.6994L10.0144 23.8106C10.2268 24.0459 10.5894 24.0645 10.8247 23.8522C12.1659 22.2051 13.7054 20.73 15.4084 19.4606L17.0289 18.2525H20.3025V11.4398H18.9497Z" fill="white"/>
<path d="M9.44946 18.2523V9.15747H14.6498C13.6314 9.57625 12.9156 10.576 12.9156 11.7449C12.9156 12.9038 13.6199 13.8978 14.624 14.3223C14.8148 14.4026 14.8148 14.6809 14.624 14.7612C13.6973 15.1527 13.0262 16.0304 12.9285 17.0746C12.9199 17.1606 12.9156 17.2495 12.9156 17.3386C12.9156 17.637 12.9615 17.9237 13.0504 18.1934C13.0561 18.2134 13.0619 18.2335 13.069 18.2521H9.44946V18.2523Z" fill="#D1D3D4"/>
<path d="M18.1084 11.6333C18.2662 11.954 18.5925 12.1569 18.9498 12.1569H20.3024V11.4398H18.9498C18.5925 11.4398 18.2662 11.2366 18.1084 10.9162C17.5784 9.8392 16.4822 9.15686 15.2817 9.15686H9.44946V9.87401H15.2817C16.4822 9.87401 17.5784 10.5564 18.1084 11.6333Z" fill="#D1D3D4"/>
<path d="M20.3024 11.4398H19.2983V18.2528H20.3024V11.4398Z" fill="#D1D3D4"/>
<path d="M24.426 10.5077H20.8761C20.5593 10.5077 20.3022 10.7645 20.3022 11.0815V18.5039C20.3022 18.8207 20.559 19.0775 20.8761 19.0775H24.426C24.7428 19.0775 24.9998 18.8207 24.9998 18.5039V11.0813C24.9998 10.7645 24.743 10.5077 24.426 10.5077Z" fill="#FEDE3A"/>
<path d="M20.8763 11.942H24.4262C24.743 11.942 25 12.1988 25 12.5158V11.0815C25 10.7647 24.7432 10.5077 24.4262 10.5077H20.8763C20.5595 10.5077 20.3025 10.7645 20.3025 11.0815V12.5158C20.3025 12.1988 20.5593 11.942 20.8763 11.942Z" fill="#F7CB15"/>
<path d="M8.29724 15.9789H11.121C11.7489 15.9789 12.258 16.488 12.258 17.1158C12.258 17.7437 11.7489 18.2528 11.121 18.2528H8.29724C7.66937 18.2528 7.16028 17.7437 7.16028 17.1158C7.16028 16.488 7.66937 15.9789 8.29724 15.9789Z" fill="white"/>
<path d="M8.29724 16.5527H11.121C11.6498 16.5527 12.0927 16.9139 12.2201 17.4027C12.244 17.311 12.258 17.2152 12.258 17.1158C12.258 16.488 11.7489 15.9789 11.121 15.9789H8.29724C7.66937 15.9789 7.16028 16.488 7.16028 17.1158C7.16028 17.2152 7.17441 17.311 7.19816 17.4027C7.32554 16.9139 7.76869 16.5527 8.29724 16.5527Z" fill="#E6E7E8"/>
<path d="M9.85319 20.7796L11.9516 18.2523L12.9284 17.0748C12.9198 17.1608 12.9155 17.2497 12.9155 17.3388C12.9155 17.6372 12.9614 17.9239 13.0503 18.1936L13.0015 18.2523L10.427 21.3534C9.80159 22.1064 9.74998 23.1635 10.2562 23.9681C10.1673 23.9365 10.0828 23.8864 10.0137 23.8104L9.9134 23.7C9.17044 22.8766 9.14464 21.6331 9.85319 20.7796Z" fill="#E6E7E8"/>
<path d="M7.56238 13.705H11.3961C12.024 13.705 12.5331 14.214 12.5331 14.8419C12.5331 15.4698 12.024 15.9789 11.3961 15.9789H7.56238C6.93451 15.9789 6.42542 15.4698 6.42542 14.8419C6.42542 14.214 6.9343 13.705 7.56238 13.705Z" fill="white"/>
<path d="M7.56238 14.2783H11.3961C11.9249 14.2783 12.3678 14.6398 12.4952 15.1284C12.5192 15.0367 12.5331 14.9408 12.5331 14.8415C12.5331 14.2136 12.024 13.7045 11.3961 13.7045H7.56238C6.93451 13.7045 6.42542 14.2136 6.42542 14.8415C6.42542 14.9408 6.43934 15.0364 6.4633 15.1284C6.59068 14.6398 7.03362 14.2783 7.56238 14.2783Z" fill="#E6E7E8"/>
<path d="M8.45862 11.4309H11.121C11.7489 11.4309 12.258 11.94 12.258 12.5679C12.258 13.1957 11.7489 13.7048 11.121 13.7048H8.45862C7.83075 13.7048 7.32166 13.1957 7.32166 12.5679C7.32166 11.9398 7.83075 11.4309 8.45862 11.4309Z" fill="white"/>
<path d="M8.45862 12.0045H11.121C11.6498 12.0045 12.0927 12.3658 12.2201 12.8546C12.2441 12.7628 12.258 12.667 12.258 12.5677C12.258 11.9398 11.7489 11.4307 11.121 11.4307H8.45862C7.83075 11.4307 7.32166 11.9398 7.32166 12.5677C7.32166 12.667 7.33578 12.7628 7.35954 12.8546C7.48692 12.366 7.93007 12.0045 8.45862 12.0045Z" fill="#E6E7E8"/>
<path d="M9.55249 9.15686H10.5594C11.1873 9.15686 11.6964 9.66595 11.6964 10.2938C11.6964 10.9217 11.1873 11.4308 10.5594 11.4308H9.55249C8.92462 11.4308 8.41553 10.9217 8.41553 10.2938C8.41553 9.66595 8.92441 9.15686 9.55249 9.15686Z" fill="white"/>
<path d="M9.55249 9.73067H10.5596C11.0882 9.73067 11.5313 10.0919 11.6587 10.5807C11.6827 10.489 11.6966 10.3931 11.6966 10.2938C11.6966 9.66595 11.1875 9.15686 10.5596 9.15686H9.55249C8.92462 9.15686 8.41553 9.66595 8.41553 10.2938C8.41553 10.3931 8.42966 10.489 8.45341 10.5807C8.58079 10.0919 9.02374 9.73067 9.55249 9.73067Z" fill="#E6E7E8"/>
<path d="M21.4497 19.0775H22.4537V10.5074H21.4497V19.0775Z" fill="#F7CB15"/>
</svg>
