<svg width="32" height="32" viewBox="0 0 32 32" fill="none" xmlns="http://www.w3.org/2000/svg">
<path d="M16 29C8.83171 29 3 23.1683 3 16C3 8.83171 8.83171 3 16 3C23.1683 3 29 8.83171 29 16C29 23.1683 23.1683 29 16 29Z" fill="#0084FE"/>
<path d="M16 3V29C23.1683 29 29 23.1683 29 16C29 8.83171 23.1683 3 16 3Z" fill="#055DE1"/>
<path d="M16 24.6834C11.2119 24.6834 7.31641 20.788 7.31641 15.9998C7.31641 11.2117 11.2119 7.31625 16 7.31625C20.7881 7.31625 24.6836 11.2117 24.6836 15.9998C24.6836 20.788 20.7881 24.6834 16 24.6834Z" fill="#D9E7F3"/>
<path d="M16 7.31625V24.6834C20.7881 24.6834 24.6836 20.788 24.6836 15.9998C24.6836 11.2117 20.7881 7.31625 16 7.31625Z" fill="#C8D4DF"/>
<path d="M16 20.1133C13.7319 20.1133 11.8867 18.2682 11.8867 16.0001C11.8867 13.732 13.7319 11.8868 16 11.8868C18.2681 11.8868 20.1133 13.732 20.1133 16.0001C20.1133 18.2682 18.2681 20.1133 16 20.1133Z" fill="#0084FE"/>
<path d="M16 11.8868V20.1133C18.2681 20.1133 20.1133 18.2682 20.1133 16.0001C20.1133 13.732 18.2681 11.8868 16 11.8868Z" fill="#055DE1"/>
<path d="M16 16.7624C15.805 16.7624 15.61 16.688 15.4614 16.5392C15.1639 16.2419 15.1639 15.7594 15.4614 15.4621L21.063 9.86049C21.3604 9.56294 21.8428 9.56294 22.1402 9.86049C22.4377 10.1578 22.4377 10.6401 22.1402 10.9376L16.5386 16.5392C16.39 16.688 16.195 16.7624 16 16.7624Z" fill="#2D2D55"/>
<path d="M22.1402 9.85974L15.4614 16.5385C15.61 16.6872 15.805 16.7616 16 16.7616C16.195 16.7616 16.39 16.6872 16.5385 16.5385L22.1402 10.9369C22.4377 10.6395 22.4377 10.1571 22.1402 9.85974Z" fill="#0A0A48"/>
<path d="M24.582 11.4114C24.5607 11.4114 24.5393 11.4104 24.5179 11.4089L21.5377 11.1575C21.1675 11.1262 20.8737 10.8326 20.8426 10.4625L20.5911 7.48204C20.5722 7.25849 20.653 7.0381 20.8117 6.87941L24.0432 3.64786C24.2529 3.43819 24.5651 3.36916 24.8436 3.47112C25.1219 3.57288 25.3159 3.82698 25.3409 4.12235L25.5381 6.46166L27.8776 6.65903C28.173 6.68402 28.4271 6.87802 28.529 7.15653C28.6308 7.43483 28.5617 7.74706 28.3521 7.95673L25.1205 11.1883C24.9771 11.3317 24.7831 11.4114 24.582 11.4114Z" fill="#FFC300"/>
<path d="M27.8778 6.6591L25.5385 6.46173L21.0632 10.937C21.1868 11.0606 21.3526 11.1419 21.5377 11.1576L24.5181 11.4089C24.5396 11.4105 24.5608 11.4115 24.5822 11.4115C24.7834 11.4115 24.9774 11.3318 25.1208 11.1884L28.3523 7.9568C28.562 7.74713 28.631 7.43491 28.5293 7.1564C28.4273 6.8781 28.1732 6.6841 27.8778 6.6591Z" fill="#FAB400"/>
</svg>
