<svg width="32" height="32" viewBox="0 0 32 32" fill="none" xmlns="http://www.w3.org/2000/svg">
<path d="M11.9356 5.84595H10.5808V9.07673H11.9356V5.84595Z" fill="#890606"/>
<path d="M21.4195 5.84546H20.0647V9.07624H21.4195V5.84546Z" fill="#890606"/>
<path d="M21.4195 6.03078C21.4195 6.44616 21.0131 6.76924 20.3808 6.76924H11.6195C10.9421 6.76924 10.5808 6.44616 10.5808 6.03078V4.73846C10.5808 4.27692 10.9873 4 11.6195 4H20.3356C21.0131 4 21.4195 4.27692 21.4195 4.73846V6.03078Z" fill="#ED5B3A"/>
<path d="M20.3808 4H11.6195C10.9873 4 10.5808 4.27692 10.5808 4.73846V4.78462C11.9356 5.15385 13.7421 5.38462 16.0002 5.38462C18.2582 5.38462 20.0647 5.15385 21.4195 4.73846C21.4195 4.27692 21.0131 4 20.3808 4Z" fill="#F48B56"/>
<path d="M30 26.5692C30 27.3539 29.3677 28 28.6 28H3.4C2.63226 28 2 27.3539 2 26.5692V10.0461C2 9.26148 2.63226 8.61533 3.4 8.61533H28.6C29.3677 8.61533 30 9.26148 30 10.0461V26.5692Z" fill="#08476B"/>
<path d="M2.09033 9.99995C2.09033 9.21533 2.72259 8.61533 3.49033 8.61533H28.5097C29.2774 8.61533 30 9.26148 30 10.0461V26.6154C30 27.4 29.2774 28 28.5097 28H17.3548" fill="#05365B"/>
<path d="M16 21.9076C22.3226 21.9076 27.7419 19.6461 30 16.5076V12.2153C30 11.4307 29.2774 10.923 28.5097 10.923H3.49032C2.72258 10.923 2 11.4307 2 12.2153V16.5076C4.25806 19.6922 9.67741 21.9076 16 21.9076Z" fill="#002C47"/>
<path d="M16 19.7844C22.3226 19.7844 27.7419 17.5229 30 14.3844V10.0921C30 9.30748 29.2774 8.66133 28.5097 8.66133H3.4C2.63226 8.61517 2 9.26133 2 10.0459V14.3383C4.25806 17.5229 9.67741 19.7844 16 19.7844Z" fill="#2072A0"/>
<path d="M16 19.7384C22.3226 19.7384 27.7419 17.5231 30 14.3384V10.0461C30 9.26148 29.3678 8.61533 28.6 8.61533H3.35486" fill="#195F8E"/>
<path d="M17.8063 23.0156C17.8063 23.3849 17.5353 23.8464 17.1288 23.8464H15.0063C14.5998 23.8464 14.2385 23.3387 14.2385 23.0156V18.4464C14.2385 18.0772 14.5095 18.3541 14.9159 18.3541H17.1288C17.5353 18.3541 17.8063 18.1233 17.8063 18.4464V23.0156Z" fill="#002C47"/>
<path d="M17.8063 22C17.8063 22.3692 17.5353 22.4615 17.1288 22.4615H14.9159C14.5095 22.4615 14.2385 22.3692 14.2385 22V17.4307C14.2385 17.0615 14.5095 17.3846 14.9159 17.3846H17.1288C17.5353 17.3846 17.8063 17.0615 17.8063 17.4307V22Z" fill="#ED5B3A"/>
<path d="M14.1935 17.4307C14.1935 17.0615 14.4644 17.3846 14.8709 17.3846H17.0838C17.4903 17.3846 17.7612 17.0615 17.7612 17.4307V22C17.7612 22.3692 17.4903 22.4615 17.0838 22.4615" fill="#DD4228"/>
<path d="M16.903 21.3539C16.903 21.5385 16.8578 21.5385 16.632 21.5385H15.3675C15.1417 21.5385 15.0966 21.5385 15.0966 21.3539V18.2616C15.0966 18.0769 15.232 18.3077 15.503 18.3077H16.5417C16.7675 18.3077 16.903 18.0769 16.903 18.2616V21.3539Z" fill="#B53023"/>
<path d="M15.0966 18.2616C15.0966 18.0769 15.3224 18.3077 15.5482 18.3077H16.4966C16.7224 18.3077 16.903 18.0769 16.903 18.2616V21.3539C16.903 21.5385 16.8127 21.5385 16.5417 21.5385" fill="#9B1812"/>
</svg>
