<svg width="32" height="32" viewBox="0 0 32 32" fill="none" xmlns="http://www.w3.org/2000/svg">
<path d="M28.5157 26H3.48427C2.11233 26 1 24.845 1 23.4204V11.5796C1 10.155 2.11233 9 3.48427 9H28.5157C29.8877 9 31 10.155 31 11.5796V23.4204C31 24.8456 29.8877 26 28.5157 26Z" fill="#A72973"/>
<path d="M28.5157 24H3.48427C2.11233 24 1 22.845 1 21.4204V9.57957C1 8.155 2.11233 7 3.48427 7H28.5157C29.8877 7 31 8.155 31 9.57957V21.4204C31 22.8456 29.8877 24 28.5157 24Z" fill="#EF5A9D"/>
<path d="M26.1134 14.6301C26.1171 13.9774 25.7993 13.3236 25.159 12.9306L14.5006 6.38311C13.1402 5.54756 11.3715 6.50231 11.3715 8.07192V22.6422C11.3715 24.2118 13.1414 25.1665 14.5006 24.331L25.159 17.7834C25.7993 17.3904 26.1171 16.7366 26.1134 16.084V14.6301Z" fill="#BCBEC0"/>
<path d="M11.3696 21.1662V8.06998C11.3696 6.50036 13.1396 5.54561 14.4988 6.38116L25.1571 12.9287C26.4305 13.7111 26.4305 15.5238 25.1571 16.3063L14.4988 22.8538C13.1396 23.6894 11.3696 22.7346 11.3696 21.1662Z" fill="#D1D1D1"/>
<path d="M19.0523 15.5109C16.2591 15.5109 13.6386 14.7957 11.3696 13.5424V21.1662C11.3696 22.7358 13.1396 23.6905 14.4988 22.855L25.1571 16.3075C26.0234 15.7752 26.2989 14.7674 25.9872 13.9306C23.8982 14.942 21.5435 15.5109 19.0523 15.5109Z" fill="#E6E7E8"/>
</svg>
