<svg width="32" height="32" viewBox="0 0 32 32" fill="none" xmlns="http://www.w3.org/2000/svg">
<path d="M26.7148 3H24.5191L22.9603 4.52344H26.7148C27.1351 4.52344 27.4765 4.86482 27.4765 5.28516V6.44559C27.4765 7.98093 26.9484 9.48651 25.9888 10.6856C25.1697 11.71 24.0793 12.4701 22.8356 12.8845L21.7614 13.2423C21.3627 13.3754 21.1469 13.8069 21.2794 14.2064C21.3857 14.5256 21.6833 14.7271 22.0024 14.7271C22.082 14.7271 22.1631 14.7144 22.2434 14.6884L23.3176 14.3298C24.8402 13.8226 26.1754 12.8912 27.1789 11.6378C28.3529 10.1695 28.9999 8.32529 28.9999 6.44559V5.28516C28.9999 4.02515 27.9748 3 26.7148 3Z" fill="#FF7816"/>
<path d="M10.2385 13.2423L9.16437 12.8853C7.92062 12.4701 6.83022 11.71 6.01117 10.6856C5.05148 9.48651 4.52344 7.98093 4.52344 6.44559V5.28516C4.52344 4.86482 4.86482 4.52344 5.28516 4.52344H9.2215L7.48085 3H5.28516C4.02515 3 3 4.02515 3 5.28516V6.44559C3 8.32529 3.64706 10.1695 4.82098 11.6378C5.82451 12.8912 7.1597 13.8226 8.68234 14.3306L9.75649 14.6884C9.83682 14.7144 9.91795 14.7271 9.9975 14.7271C10.3167 14.7271 10.6142 14.5256 10.7205 14.2064C10.853 13.8069 10.6372 13.3754 10.2385 13.2423Z" fill="#FF9F00"/>
<path d="M18.3361 17.8688V18.9961C18.3361 19.4226 18.6711 19.7578 19.0978 19.7578C20.3624 19.7578 21.383 20.7784 21.383 22.043V23.5664C21.383 23.9929 21.0479 24.3281 20.6212 24.3281H11.379C10.9524 24.3281 10.6173 23.9929 10.6173 23.5664V22.043C10.6173 20.7784 11.6379 19.7578 12.9025 19.7578C13.3292 19.7578 13.6642 19.4226 13.6642 18.9961V17.8688C10.8306 16.9698 8.75885 14.4714 8.42361 11.5007L7.479 3H24.5213L23.5767 11.5007C23.2414 14.4714 21.1697 16.9698 18.3361 17.8688Z" fill="#FFD400"/>
<path d="M20.6211 24.3281H16V3H24.5211L23.5765 11.5007C23.2413 14.4714 21.1696 16.9698 18.3359 17.8688V18.9961C18.3359 19.4226 18.671 19.7578 19.0977 19.7578C20.3622 19.7578 21.3828 20.7784 21.3828 22.043V23.5664C21.3828 23.9929 21.0478 24.3281 20.6211 24.3281Z" fill="#FF9F00"/>
<path d="M19.7781 8.74332C19.6867 8.4539 19.4431 8.25594 19.1537 8.21031L17.4474 7.96652L16.6856 6.45816C16.5486 6.1993 16.2742 6.0773 16.0001 6.0773C15.726 6.0773 15.4516 6.1993 15.3145 6.45816L14.5528 7.96652L12.8465 8.21011C12.5571 8.25594 12.3135 8.4539 12.222 8.74332C12.1459 9.01765 12.222 9.32214 12.4353 9.52031L13.654 10.6934L13.3646 12.3387C13.3188 12.613 13.4255 12.9024 13.6693 13.0853C13.8978 13.2527 14.2178 13.2833 14.4614 13.1462L16.0001 12.3539L17.5388 13.1462C17.7977 13.2833 18.1024 13.2527 18.3311 13.0853C18.5747 12.9024 18.6814 12.613 18.6356 12.3387L18.3461 10.6934L19.5649 9.52031C19.7781 9.32234 19.8545 9.01765 19.7781 8.74332Z" fill="#FF9F00"/>
<path d="M22.9063 23.5665V28.1775H9.09375V23.5665C9.09375 23.1398 9.42879 22.8048 9.85547 22.8048H22.1445C22.5712 22.8048 22.9063 23.1398 22.9063 23.5665Z" fill="#EC5569"/>
<path d="M17.5387 13.1462L16 12.3539V6.0773C16.2741 6.0773 16.5485 6.1993 16.6855 6.45816L17.4473 7.96652L19.1536 8.21031C19.443 8.25594 19.6866 8.4539 19.778 8.74332C19.8542 9.01765 19.778 9.32234 19.5648 9.52031L18.3461 10.6934L18.6355 12.3389C18.6813 12.613 18.5746 12.9024 18.3308 13.0853C18.1023 13.2527 17.7976 13.2833 17.5387 13.1462Z" fill="#FF7816"/>
<path d="M22.9063 23.5665V28.1775H16V22.8048H22.1445C22.5712 22.8048 22.9063 23.1398 22.9063 23.5665Z" fill="#CC2E43"/>
<path d="M24.4297 28.2382C24.4297 28.6646 24.0947 28.9999 23.668 28.9999H8.33203C7.90535 28.9999 7.57031 28.6646 7.57031 28.2382C7.57031 27.8115 7.90535 27.4764 8.33203 27.4764H23.668C24.0947 27.4764 24.4297 27.8115 24.4297 28.2382Z" fill="#697C86"/>
<path d="M24.4297 28.2382C24.4297 28.6646 24.0947 28.9999 23.668 28.9999H16V27.4764H23.668C24.0947 27.4764 24.4297 27.8115 24.4297 28.2382Z" fill="#465A61"/>
</svg>
