<svg width="32" height="32" viewBox="0 0 32 32" fill="none" xmlns="http://www.w3.org/2000/svg">
<path d="M28.5157 25.9994H3.48427C2.11233 25.9994 1 24.8938 1 23.5302V12.1958C1 10.8322 2.11233 9.72662 3.48427 9.72662H28.5157C29.8877 9.72662 31 10.8322 31 12.1958V23.5302C31 24.8944 29.8877 25.9994 28.5157 25.9994Z" fill="#4B557A"/>
<path d="M28.5157 24.1474H3.48427C2.11233 24.1474 1 23.0419 1 21.6782V10.3439C1 8.98029 2.11233 7.87469 3.48427 7.87469H28.5157C29.8877 7.87469 31 8.98029 31 10.3439V21.6782C31 23.0425 29.8877 24.1474 28.5157 24.1474Z" fill="#6676AE"/>
<path d="M27.0667 12.8132H6.05418C5.38281 12.8132 4.83813 12.2718 4.83813 11.6045C4.83813 10.9366 5.38281 10.3958 6.05418 10.3958H27.0667C27.7381 10.3958 28.2828 10.9372 28.2828 11.6045C28.2828 12.2718 27.7381 12.8132 27.0667 12.8132Z" fill="#E6E7E8"/>
<path d="M27.0667 17.275H6.05418C5.38281 17.275 4.83813 16.7337 4.83813 16.0663C4.83813 15.3984 5.38281 14.8577 6.05418 14.8577H27.0667C27.7381 14.8577 28.2828 15.399 28.2828 16.0663C28.2828 16.7337 27.7381 17.275 27.0667 17.275Z" fill="#E6E7E8"/>
<path d="M27.0667 21.7363H6.05418C5.38281 21.7363 4.83813 21.195 4.83813 20.5277C4.83813 19.8597 5.38281 19.319 6.05418 19.319H27.0667C27.7381 19.319 28.2828 19.8603 28.2828 20.5277C28.2828 21.1956 27.7381 21.7363 27.0667 21.7363Z" fill="#E6E7E8"/>
<path d="M22.2209 14.295L17.8549 9.95538L7.14334 20.602L11.5094 24.9416L22.2209 14.295Z" fill="#009ADD"/>
<path d="M21.1122 13.1936L18.9629 11.0573L8.25137 21.7039L10.4007 23.8403L21.1122 13.1936Z" fill="#1CAEE4"/>
<path d="M4 28.0678L7.14428 20.6032L11.51 24.9425L4 28.0678Z" fill="#E6E7E8"/>
<path d="M4 28.0678L8.20921 21.6617L10.4451 23.8841L4 28.0678Z" fill="white"/>
<path d="M25.5851 8.96L23.2244 6.61356C22.6702 6.06281 21.7727 6.06281 21.2186 6.61356L17.855 9.9568L22.2207 14.2961L25.5844 10.9529C26.1385 10.4029 26.1385 9.51003 25.5851 8.96Z" fill="#136DA0"/>
<path d="M24.7755 8.15545L24.0331 7.41753C23.6442 7.03172 23.0143 7.03172 22.6262 7.41753L18.9639 11.0577L21.1132 13.194L24.7755 9.55385C25.1644 9.16804 25.1644 8.54199 24.7755 8.15545Z" fill="#009ADD"/>
<path d="M22.221 14.295L17.855 9.95538L16.4449 11.3569L20.8109 15.6965L22.221 14.295Z" fill="#E7AD27"/>
<path d="M21.1127 13.1936L18.9634 11.0573L17.5533 12.4588L19.7026 14.5951L21.1127 13.1936Z" fill="#FEDE3A"/>
<path d="M4 28.0678L6.57718 26.9957L5.07863 25.5062L4 28.0678Z" fill="#E7AD27"/>
<path d="M4 28.0678L6.22725 26.6479L5.42784 25.8533L4 28.0678Z" fill="#F7CB15"/>
</svg>
