<svg width="32" height="34" viewBox="0 0 32 34" fill="none" xmlns="http://www.w3.org/2000/svg">
<path d="M8.23329 20L3.00005 28.5213L7.67359 28.4734L9.81712 32.7079L15.0504 24.1866L8.23329 20Z" fill="#ED6362"/>
<path d="M23.817 20L29.0502 28.5213L24.3767 28.4734L22.2332 32.7079L16.9999 24.1866L23.817 20Z" fill="#ED6362"/>
<path d="M27.5 17C27.5 23.3513 22.3513 28.5 16 28.5C9.64873 28.5 4.5 23.3513 4.5 17C4.5 10.6487 9.64873 5.5 16 5.5C22.3513 5.5 27.5 10.6487 27.5 17Z" fill="#FFDB70" stroke="#FFCC5B" stroke-width="3"/>
<path d="M12.78 9.51668L13.6931 6.86877L13.269 6.87009C13.269 6.87008 13.269 6.87008 13.269 6.87007M12.78 9.51668L12.3075 9.35331L13.1839 6.81179M12.78 9.51668L12.3073 9.35368L13.3806 9.92795M12.78 9.51668C12.6629 9.85545 13.0748 10.1378 13.3806 9.92795M13.1839 6.81179L13.269 6.87007M13.1839 6.81179L10.8792 5.23407M13.1839 6.81179L13.2204 6.70577C13.196 6.77725 13.2291 6.84272 13.269 6.87007M13.269 6.87007L10.8792 5.23407M10.8792 5.23407L11.1614 4.82161L10.8791 5.23399C10.5274 4.9933 10.4308 4.58493 10.5472 4.2473C10.6622 3.9139 10.9799 3.65606 11.391 3.65606H14.2724L15.1562 1.09326C15.1563 1.09282 15.1565 1.09239 15.1566 1.09195C15.296 0.683609 15.6714 0.5 15.9995 0.5C16.3279 0.5 16.703 0.683694 16.8432 1.09147L16.8431 1.09108L16.3704 1.25408L16.8433 1.09156L17.7276 3.65606H20.609C21.0201 3.65606 21.3378 3.9139 21.4528 4.2473C21.5692 4.58492 21.4726 4.9933 21.1209 5.23399C21.1209 5.23401 21.1209 5.23402 21.1209 5.23404C21.1209 5.23405 21.1208 5.23406 21.1208 5.23407L18.8161 6.81178L19.6925 9.35331L10.8792 5.23407ZM13.3806 9.92795L15.7705 8.29185L13.3806 9.92795ZM18.7309 6.87011L18.731 6.87009L18.7309 6.87011Z" fill="#ED6362" stroke="white"/>
<path d="M4.6664 12.952C4.45239 13.0918 4.16403 12.9036 4.24601 12.6778L4.88517 10.9125L3.77601 12.5072C3.776 12.5072 3.77598 12.5073 3.77597 12.5073C3.63972 12.8828 3.83139 13.2138 4.07201 13.3708C4.30802 13.5248 4.64867 13.5606 4.93947 13.3708M4.6664 12.952L4.93947 13.3708M4.6664 12.952L6.33938 11.8612M4.6664 12.952L4.93994 13.3705M4.93947 13.3708L4.93994 13.3705M4.93947 13.3708L6.33938 11.8612M7.2296 6.99966C7.10065 6.64234 6.76598 6.5 6.49964 6.5C6.23367 6.5 5.89865 6.64218 5.77028 6.99999L5.18949 8.60404H3.27367C2.93461 8.60404 2.65054 8.80845 2.54378 9.10331C2.43344 9.40806 2.53233 9.76592 2.83998 9.96645L7.39845 8.93466C7.43515 9.0356 7.54001 9.10404 7.65822 9.10404H9.72633C9.99086 9.10404 10.101 9.40816 9.88695 9.5476L10.16 9.96645C10.4677 9.76592 10.5666 9.40806 10.4562 9.10331C10.3495 8.80845 10.0654 8.60404 9.72633 8.60404H7.81051M7.2296 6.99966L6.75929 7.16938L7.22942 6.99916L7.2296 6.99966ZM7.2296 6.99966L7.81051 8.60404M7.81051 8.60404H7.65822C7.7227 8.60404 7.82423 8.64243 7.86836 8.76381M7.81051 8.60404L7.86836 8.76381M7.86836 8.76381L7.65822 8.84022L7.39851 8.93464L7.65822 8.8406L7.86858 8.76443L7.86836 8.76381ZM6.33938 11.8612L6.49999 12.1076M6.33938 11.8612L6.49999 12.1076M4.93994 13.3705L6.5 12.3534M4.93994 13.3705L6.49999 12.1076M8.6585 10.9454L10.1599 9.96652L8.58474 10.7417L8.58497 10.7423M8.6585 10.9454L8.58497 10.7423M8.6585 10.9454L9.22399 12.5072L8.58497 10.7423M8.6585 10.9454L8.48723 11.0571M8.58497 10.7423C8.63428 10.8789 8.56803 11.0042 8.48723 11.0571M8.48723 11.0571L8.48704 11.0572L8.48701 11.0572C8.48708 11.0572 8.48716 11.0571 8.48723 11.0571ZM6.5 12.3534L8.06054 13.3708L8.06065 13.3709C8.35135 13.5603 8.69181 13.5246 8.92782 13.3707C9.16846 13.2139 9.36022 12.8831 9.22412 12.5076L6.50001 12.1076L6.61245 12.2801L6.61241 12.2801L6.5 12.1076L6.38759 12.2801M6.5 12.3534L6.61233 12.2802C6.57409 12.3051 6.53449 12.3144 6.5 12.3144C6.46548 12.3144 6.42585 12.305 6.38759 12.2801M6.5 12.3534L6.38759 12.2801M6.38759 12.2801L6.38755 12.2801L6.49999 12.1076" fill="#ED6362" stroke="white"/>
<path d="M23.6664 12.952C23.4524 13.0918 23.164 12.9036 23.246 12.6778L23.8852 10.9125L22.776 12.5072C22.776 12.5072 22.776 12.5073 22.776 12.5073C22.6397 12.8828 22.8314 13.2138 23.072 13.3708C23.308 13.5248 23.6487 13.5606 23.9395 13.3708M23.6664 12.952L23.9395 13.3708M23.6664 12.952L25.3394 11.8612M23.6664 12.952L23.9399 13.3705M23.9395 13.3708L23.9399 13.3705M23.9395 13.3708L25.3394 11.8612M26.2296 6.99966C26.1006 6.64234 25.766 6.5 25.4996 6.5C25.2337 6.5 24.8987 6.64218 24.7703 6.99999L24.1895 8.60404H22.2737C21.9346 8.60404 21.6505 8.80845 21.5438 9.10331C21.4334 9.40806 21.5323 9.76592 21.84 9.96645L26.3985 8.93466C26.4352 9.0356 26.54 9.10404 26.6582 9.10404H28.7263C28.9909 9.10404 29.101 9.40816 28.8869 9.5476L29.16 9.96645C29.4677 9.76592 29.5666 9.40806 29.4562 9.10331C29.3495 8.80845 29.0654 8.60404 28.7263 8.60404H26.8105M26.2296 6.99966L25.7593 7.16938L26.2294 6.99916L26.2296 6.99966ZM26.2296 6.99966L26.8105 8.60404M26.8105 8.60404H26.6582C26.7227 8.60404 26.8242 8.64243 26.8684 8.76381M26.8105 8.60404L26.8684 8.76381M26.8684 8.76381L26.6582 8.84022L26.3985 8.93464L26.6582 8.8406L26.8686 8.76443L26.8684 8.76381ZM25.3394 11.8612L25.5 12.1076M25.3394 11.8612L25.5 12.1076M23.9399 13.3705L25.5 12.3534M23.9399 13.3705L25.5 12.1076M27.6585 10.9454L29.1599 9.96652L27.5847 10.7417L27.585 10.7423M27.6585 10.9454L27.585 10.7423M27.6585 10.9454L28.224 12.5072L27.585 10.7423M27.6585 10.9454L27.4872 11.0571M27.585 10.7423C27.6343 10.8789 27.568 11.0042 27.4872 11.0571M27.4872 11.0571L27.487 11.0572L27.487 11.0572C27.4871 11.0572 27.4872 11.0571 27.4872 11.0571ZM25.5 12.3534L27.0605 13.3708L27.0607 13.3709C27.3513 13.5603 27.6918 13.5246 27.9278 13.3707C28.1685 13.2139 28.3602 12.8831 28.2241 12.5076L25.5 12.1076L25.6124 12.2801L25.6124 12.2801L25.5 12.1076L25.3876 12.2801M25.5 12.3534L25.6123 12.2802C25.5741 12.3051 25.5345 12.3144 25.5 12.3144C25.4655 12.3144 25.4258 12.305 25.3876 12.2801M25.5 12.3534L25.3876 12.2801M25.3876 12.2801L25.3876 12.2801L25.5 12.1076" fill="#ED6362" stroke="white"/>
<path d="M14.6875 17.2646H15.6992C16.2096 17.2601 16.613 17.1279 16.9092 16.8682C17.21 16.6084 17.3604 16.2324 17.3604 15.7402C17.3604 15.2663 17.235 14.8994 16.9844 14.6396C16.7383 14.3753 16.36 14.2432 15.8496 14.2432C15.403 14.2432 15.0361 14.373 14.749 14.6328C14.4619 14.888 14.3184 15.223 14.3184 15.6377H12.6572C12.6572 15.1273 12.7917 14.6624 13.0605 14.2432C13.334 13.8239 13.7122 13.498 14.1953 13.2656C14.6829 13.0286 15.2275 12.9102 15.8291 12.9102C16.8226 12.9102 17.6019 13.1608 18.167 13.6621C18.7367 14.1589 19.0215 14.8516 19.0215 15.7402C19.0215 16.1868 18.8779 16.6084 18.5908 17.0049C18.3083 17.3968 17.9414 17.693 17.4902 17.8936C18.0371 18.0804 18.4518 18.3743 18.7344 18.7754C19.0215 19.1764 19.165 19.6549 19.165 20.2109C19.165 21.1042 18.8574 21.8151 18.2422 22.3438C17.6315 22.8724 16.8271 23.1367 15.8291 23.1367C14.8721 23.1367 14.0882 22.8815 13.4775 22.3711C12.8669 21.8607 12.5615 21.1816 12.5615 20.334H14.2227C14.2227 20.7715 14.3685 21.127 14.6602 21.4004C14.9564 21.6738 15.3529 21.8105 15.8496 21.8105C16.3646 21.8105 16.7702 21.6738 17.0664 21.4004C17.3626 21.127 17.5107 20.7305 17.5107 20.2109C17.5107 19.6868 17.3558 19.2835 17.0459 19.001C16.736 18.7184 16.2757 18.5771 15.665 18.5771H14.6875V17.2646Z" fill="#ED6362"/>
</svg>
