<svg width="32" height="33" viewBox="0 0 32 33" fill="none" xmlns="http://www.w3.org/2000/svg">
<path d="M12 22L12 32L15.9574 29.5134L20 32V22L12 22Z" fill="#3C7D1D"/>
<path d="M27.5 16C27.5 22.3513 22.3513 27.5 16 27.5C9.64873 27.5 4.5 22.3513 4.5 16C4.5 9.64873 9.64873 4.5 16 4.5C22.3513 4.5 27.5 9.64872 27.5 16Z" fill="#46B451" stroke="#3C7D1D" stroke-width="3"/>
<path d="M17.4534 3.02485H19.6872C20.0605 3.02485 20.3515 3.25988 20.4568 3.56524C20.5635 3.87483 20.4744 4.24993 20.1532 4.46971C20.1532 4.46973 20.1532 4.46974 20.1532 4.46976C20.1532 4.46977 20.1531 4.46978 20.1531 4.46979L18.3723 5.68888L19.0485 7.64998L19.0487 7.65035L17.4534 3.02485ZM17.4534 3.02485L16.7692 1.04074C16.7691 1.04058 16.7691 1.04042 16.769 1.04026M17.4534 3.02485L16.769 1.04026M16.769 1.04026C16.6404 0.666639 16.2966 0.5 15.9996 0.5C15.7027 0.5 15.3586 0.666674 15.2307 1.04114L14.5466 3.02485H12.3128C11.9395 3.02485 11.6485 3.25988 11.5432 3.56524C11.4364 3.87487 11.5257 4.25002 11.8469 4.46979L13.6277 5.68889L12.9515 7.64998L16.769 1.04026ZM17.8131 8.55495L17.8132 8.55503L14.1874 8.55462L16 7.31375L17.8131 8.55495ZM18.2415 5.77843C18.2414 5.77849 18.2413 5.77855 18.2412 5.77861L18.2413 5.77859L18.2415 5.77843ZM12.9514 7.65003C12.8192 8.03268 12.9996 8.38007 13.2548 8.55493C13.5069 8.72757 13.8756 8.76825 14.1869 8.55495L12.9514 7.65003Z" fill="#F7CB15" stroke="white"/>
<path d="M13.98 21H12.4438V13.5796L10.1777 14.354V13.0527L13.7832 11.7261H13.98V21ZM22.2158 17.1089C22.2158 18.4377 21.9661 19.4406 21.4668 20.1177C20.9717 20.7905 20.2163 21.127 19.2007 21.127C18.202 21.127 17.4487 20.799 16.9409 20.1431C16.4373 19.4829 16.1792 18.5075 16.1665 17.2168V15.6172C16.1665 14.2884 16.4141 13.2918 16.9092 12.6274C17.4085 11.9631 18.1681 11.6309 19.188 11.6309C20.1994 11.6309 20.9526 11.9546 21.4478 12.6021C21.9471 13.2495 22.2031 14.2186 22.2158 15.5093V17.1089ZM20.6733 15.3823C20.6733 14.5148 20.5549 13.88 20.3179 13.478C20.0809 13.0718 19.7043 12.8687 19.188 12.8687C18.6844 12.8687 18.3141 13.0612 18.0771 13.4463C17.8402 13.8271 17.7153 14.4238 17.7026 15.2363V17.3311C17.7026 18.1943 17.8232 18.8376 18.0645 19.2607C18.3057 19.6839 18.6844 19.8955 19.2007 19.8955C19.6958 19.8955 20.0618 19.7008 20.2988 19.3115C20.5358 18.918 20.6606 18.3044 20.6733 17.4707V15.3823Z" fill="white"/>
</svg>
