<svg width="32" height="33" viewBox="0 0 32 33" fill="none" xmlns="http://www.w3.org/2000/svg">
<path d="M12 22L12 32L15.9574 29.5134L20 32V22L12 22Z" fill="#5C429D"/>
<path d="M27.5 16C27.5 22.3513 22.3513 27.5 16 27.5C9.64873 27.5 4.5 22.3513 4.5 16C4.5 9.64873 9.64873 4.5 16 4.5C22.3513 4.5 27.5 9.64872 27.5 16Z" fill="#5C429D" stroke="#7468A9" stroke-width="3"/>
<path d="M17.4534 3.02485H19.6872C20.0605 3.02485 20.3515 3.25988 20.4568 3.56524C20.5635 3.87483 20.4744 4.24993 20.1532 4.46971C20.1532 4.46973 20.1532 4.46974 20.1532 4.46976C20.1532 4.46977 20.1531 4.46978 20.1531 4.46979L18.3723 5.68888L19.0485 7.64998L19.0487 7.65035L17.4534 3.02485ZM17.4534 3.02485L16.7692 1.04074C16.7691 1.04058 16.7691 1.04042 16.769 1.04026M17.4534 3.02485L16.769 1.04026M16.769 1.04026C16.6404 0.666639 16.2966 0.5 15.9996 0.5C15.7027 0.5 15.3586 0.666674 15.2307 1.04114L14.5466 3.02485H12.3128C11.9395 3.02485 11.6485 3.25988 11.5432 3.56524C11.4364 3.87487 11.5257 4.25002 11.8469 4.46979L13.6277 5.68889L12.9515 7.64998L16.769 1.04026ZM17.8131 8.55495L17.8132 8.55503L14.1874 8.55462L16 7.31375L17.8131 8.55495ZM18.2415 5.77843C18.2414 5.77849 18.2413 5.77855 18.2412 5.77861L18.2413 5.77859L18.2415 5.77843ZM12.9514 7.65003C12.8192 8.03268 12.9996 8.38007 13.2548 8.55493C13.5069 8.72757 13.8756 8.76825 14.1869 8.55495L12.9514 7.65003Z" fill="#F7CB15" stroke="white"/>
<path d="M10.7856 21H9.24951V13.5796L6.9834 14.354V13.0527L10.5889 11.7261H10.7856V21ZM19.0215 17.1089C19.0215 18.4377 18.7718 19.4406 18.2725 20.1177C17.7773 20.7905 17.022 21.127 16.0063 21.127C15.0076 21.127 14.2544 20.799 13.7466 20.1431C13.243 19.4829 12.9849 18.5075 12.9722 17.2168V15.6172C12.9722 14.2884 13.2197 13.2918 13.7148 12.6274C14.2142 11.9631 14.9738 11.6309 15.9937 11.6309C17.005 11.6309 17.7583 11.9546 18.2534 12.6021C18.7528 13.2495 19.0088 14.2186 19.0215 15.5093V17.1089ZM17.479 15.3823C17.479 14.5148 17.3605 13.88 17.1235 13.478C16.8866 13.0718 16.5099 12.8687 15.9937 12.8687C15.4901 12.8687 15.1198 13.0612 14.8828 13.4463C14.6458 13.8271 14.521 14.4238 14.5083 15.2363V17.3311C14.5083 18.1943 14.6289 18.8376 14.8701 19.2607C15.1113 19.6839 15.4901 19.8955 16.0063 19.8955C16.5015 19.8955 16.8675 19.7008 17.1045 19.3115C17.3415 18.918 17.4663 18.3044 17.479 17.4707V15.3823ZM25.4102 17.1089C25.4102 18.4377 25.1605 19.4406 24.6611 20.1177C24.166 20.7905 23.4106 21.127 22.395 21.127C21.3963 21.127 20.6431 20.799 20.1353 20.1431C19.6317 19.4829 19.3735 18.5075 19.3608 17.2168V15.6172C19.3608 14.2884 19.6084 13.2918 20.1035 12.6274C20.6029 11.9631 21.3625 11.6309 22.3823 11.6309C23.3937 11.6309 24.147 11.9546 24.6421 12.6021C25.1414 13.2495 25.3975 14.2186 25.4102 15.5093V17.1089ZM23.8677 15.3823C23.8677 14.5148 23.7492 13.88 23.5122 13.478C23.2752 13.0718 22.8986 12.8687 22.3823 12.8687C21.8787 12.8687 21.5085 13.0612 21.2715 13.4463C21.0345 13.8271 20.9097 14.4238 20.897 15.2363V17.3311C20.897 18.1943 21.0176 18.8376 21.2588 19.2607C21.5 19.6839 21.8787 19.8955 22.395 19.8955C22.8901 19.8955 23.2562 19.7008 23.4932 19.3115C23.7301 18.918 23.855 18.3044 23.8677 17.4707V15.3823Z" fill="white"/>
</svg>
