<svg width="306" height="57" viewBox="0 0 306 57" fill="none" xmlns="http://www.w3.org/2000/svg">
    <path fill-rule="evenodd" clip-rule="evenodd" d="M27.8259 55.6517C12.4581 55.6517 0 43.1936 0 27.8258C0 12.458 12.4581 0 27.8259 0H28.5902C43.958 0 56.416 12.458 56.416 27.8258C56.416 43.1936 43.958 55.6517 28.5902 55.6517H27.8259ZM27.9091 6.93272C16.3701 6.93272 7.01596 16.2869 7.01596 27.8258C7.01596 39.3648 16.3701 48.7189 27.9091 48.7189H28.4108C39.9498 48.7189 49.304 39.3648 49.304 27.8258C49.304 16.2869 39.9498 6.93272 28.4108 6.93272H27.9091ZM34.9837 38.4706C34.9837 41.4904 31.3373 43.008 29.1948 40.88L18.7643 30.5201C17.4273 29.1921 17.4273 27.0294 18.7643 25.7014L29.1948 15.3416C31.3373 13.2135 34.9837 14.7311 34.9837 17.7509V18.0501C34.9837 18.9578 34.6203 19.8277 33.9747 20.4656L28.6823 25.6952C27.3369 27.0246 27.3369 29.1969 28.6823 30.5263L33.9747 35.7559C34.6203 36.3939 34.9837 37.2638 34.9837 38.1714V38.4706Z" fill="#797D90"/>
    <path d="M87.267 18.8881C89.3942 18.8881 91.7152 19.5263 94.1241 20.7503C95.0054 21.1982 95.9987 20.8353 96.0315 19.8472C96.0442 19.4657 96.0402 19.0215 96.0129 18.5082C96.0129 17.2785 95.9632 16.3437 95.8637 15.7391C95.8033 15.3723 95.5531 15.0785 95.2257 14.9025C92.9138 13.6598 90.1068 13 86.8825 13C81.8848 13 77.9444 14.4245 74.965 17.3686C71.9856 20.2176 70.544 23.8264 70.544 28.1C70.544 32.3736 71.9856 35.8875 74.965 38.8315C77.9444 41.6806 81.981 43.2001 86.8825 43.2001C90.1068 43.2001 92.9138 42.5403 95.2257 41.2975C95.5531 41.1215 95.8033 40.8278 95.8637 40.461C95.9632 39.8564 96.0129 38.9216 96.0129 37.6919C96.0129 37.1915 96.0047 36.7481 95.9882 36.3616C95.9461 35.3739 95.0056 35.0021 94.1257 35.4528C91.7398 36.6749 89.4711 37.312 87.267 37.312C84.5759 37.312 82.2693 36.4573 80.4432 34.8428C78.6171 33.1334 77.7522 30.9491 77.7522 28.195C77.7522 25.4409 78.6171 23.1617 80.4432 21.5472C82.2693 19.7428 84.5759 18.8881 87.267 18.8881Z" fill="#797D90"/>
    <path d="M127.229 42.5699C128.028 42.4712 128.594 41.7674 128.594 40.9616V15.1298C128.594 14.2883 127.978 13.5647 127.138 13.5025C125.962 13.4152 124.813 13.4396 123.67 13.5757C123.25 13.6255 122.873 13.8472 122.608 14.1759L112.488 26.7287C111.483 27.9757 109.468 27.2648 109.468 25.663V15.1156C109.468 14.2802 108.861 13.562 108.029 13.4829C106.601 13.347 105.179 13.3459 103.785 13.4794C102.957 13.5586 102.356 14.275 102.356 15.1062V40.8808C102.356 41.7224 102.972 42.4459 103.812 42.5081C104.988 42.5954 106.136 42.571 107.28 42.4349C107.7 42.3851 108.077 42.1635 108.342 41.8347L118.462 29.2819C119.467 28.0349 121.482 28.7458 121.482 30.3476V40.9504C121.482 41.7612 122.054 42.4675 122.859 42.5659C124.33 42.7456 125.794 42.747 127.229 42.5699Z" fill="#797D90"/>
    <path d="M160.47 42.5665C161.275 42.467 161.848 41.7612 161.848 40.9504V15.1156C161.848 14.2802 161.24 13.562 160.409 13.4829C158.98 13.347 157.559 13.3459 156.164 13.4794C155.337 13.5586 154.736 14.275 154.736 15.1062V23.2683C154.736 24.2061 153.975 24.9663 153.038 24.9663H144.42C143.482 24.9663 142.722 24.2061 142.722 23.2683V15.1156C142.722 14.2802 142.115 13.562 141.283 13.4829C139.855 13.347 138.433 13.3459 137.039 13.4794C136.211 13.5586 135.61 14.275 135.61 15.1062V40.895C135.61 41.7304 136.217 42.4486 137.049 42.5277C138.477 42.6636 139.899 42.6647 141.293 42.5312C142.121 42.452 142.722 41.7356 142.722 40.9044V32.5523C142.722 31.6145 143.482 30.8543 144.42 30.8543H153.038C153.975 30.8543 154.736 31.6145 154.736 32.5523V40.9994C154.736 41.8306 155.337 42.5475 156.165 42.6254C157.579 42.7584 159.021 42.7457 160.47 42.5665Z" fill="#797D90"/>
    <path d="M189.047 19.4665C189.047 19.477 189.061 19.4785 189.063 19.4682C189.403 17.736 189.424 15.9262 189.126 14.1105C189.084 13.8512 188.857 13.6648 188.594 13.6648H170.466C169.528 13.6648 168.768 14.425 168.768 15.3627V40.6475C168.768 41.5852 169.528 42.3454 170.466 42.3454H187.645C188.458 42.3454 189.169 41.7686 189.253 40.9592C189.362 39.9159 189.362 38.8869 189.253 37.8435C189.169 37.0341 188.458 36.4573 187.645 36.4573H177.578C176.64 36.4573 175.88 35.6971 175.88 34.7594V32.4571C175.88 31.5194 176.64 30.7592 177.578 30.7592H186.024C186.832 30.7592 187.539 30.1905 187.622 29.3869C187.729 28.3594 187.727 27.3115 187.618 26.2575C187.534 25.448 186.825 24.8711 186.011 24.8711H177.578C176.64 24.8711 175.88 24.111 175.88 23.1732V21.1558C175.88 20.2181 176.64 19.4579 177.578 19.4579H189.038C189.043 19.4579 189.047 19.4618 189.047 19.4665Z" fill="#797D90"/>
    <path d="M214.323 16.3239C212.305 14.5195 209.71 13.6648 206.442 13.6648H196.703C195.766 13.6648 195.005 14.425 195.005 15.3627V40.8948C195.005 41.7302 195.613 42.4485 196.444 42.5276C197.873 42.6634 199.294 42.6645 200.689 42.531C201.516 42.4518 202.118 41.7355 202.118 40.9042V34.6414C202.118 33.7037 202.878 32.9435 203.815 32.9435H206.346C209.614 32.9435 212.209 32.0888 214.227 30.2844C216.246 28.48 217.303 26.2007 217.303 23.3516C217.399 20.4076 216.342 18.1283 214.323 16.3239ZM206.442 27.0554H203.912C202.974 27.0554 202.214 26.2952 202.214 25.3575V21.2508C202.214 20.313 202.974 19.5529 203.912 19.5529H206.442C208.557 19.5529 210.095 20.7875 210.095 23.3516C210.095 25.8208 208.557 27.0554 206.442 27.0554Z" fill="#797D90"/>
    <path d="M222.685 40.8948C222.685 41.7302 223.292 42.4485 224.124 42.5276C225.552 42.6634 226.973 42.6645 228.368 42.531C229.195 42.4518 229.797 41.7355 229.797 40.9042V21.2508C229.797 20.313 230.557 19.5529 231.495 19.5529H240.422C241.23 19.5529 241.936 18.9842 242.02 18.1806C242.126 17.153 242.125 16.1052 242.016 15.0512C241.932 14.2417 241.222 13.6648 240.408 13.6648H224.383C223.445 13.6648 222.685 14.425 222.685 15.3627V40.8948Z" fill="#797D90"/>
    <path d="M248.439 13.4829C247.608 13.562 247 14.2802 247 15.1156V40.8808C247 41.7223 247.616 42.4459 248.456 42.5081C249.632 42.5954 250.781 42.571 251.925 42.4349C252.344 42.3851 252.721 42.1634 252.986 41.8347L263.106 29.2819C264.112 28.0349 266.126 28.7458 266.126 30.3476V40.895C266.126 41.7304 266.733 42.4486 267.565 42.5277C268.993 42.6636 270.415 42.6647 271.809 42.5312C272.637 42.452 273.238 41.7356 273.238 40.9044V15.1298C273.238 14.2883 272.622 13.5647 271.783 13.5025C270.606 13.4152 269.458 13.4396 268.314 13.5757C267.895 13.6255 267.517 13.8472 267.252 14.1759L257.132 26.7287C256.127 27.9757 254.112 27.2648 254.112 25.663V15.1062C254.112 14.275 253.511 13.5586 252.684 13.4794C251.289 13.3459 249.868 13.347 248.439 13.4829Z" fill="#797D90"/>
    <path d="M279.774 23.1617C279.774 26.2716 281.191 28.9359 283.603 30.6337C284.461 31.2376 284.825 32.4134 284.251 33.2917L279.735 40.1987C279.07 41.2167 279.666 42.5554 280.881 42.6052C281.289 42.6219 281.72 42.6303 282.176 42.6303C283.384 42.6303 284.474 42.5717 285.398 42.4545C285.859 42.3961 286.262 42.1259 286.518 41.7382L291.883 33.6083L292.049 33.375C292.367 32.9257 292.883 32.6586 293.434 32.6586H293.645C294.583 32.6586 295.343 33.4188 295.343 34.3565V40.8948C295.343 41.7302 295.951 42.4485 296.782 42.5276C298.211 42.6634 299.632 42.6645 301.027 42.531C301.854 42.4518 302.455 41.7355 302.455 40.9042V22.307V15.3627C302.455 14.425 301.695 13.6648 300.757 13.6648H290.73C287.462 13.6648 284.867 14.5195 282.849 16.3239C280.735 18.0334 279.774 20.3126 279.774 23.1617ZM290.73 19.5529H294.011C294.641 19.5529 295.151 20.0631 295.151 20.6925V25.0726C295.151 26.0103 294.391 26.7705 293.453 26.7705H291.691H290.634C288.52 26.7705 286.982 25.5359 286.982 23.1617C286.982 20.8824 288.616 19.5529 290.73 19.5529Z" fill="#797D90"/>
</svg>
