<svg width="120" height="120" viewBox="0 0 120 120" fill="none" xmlns="http://www.w3.org/2000/svg">
<rect width="120" height="120" fill="#DDE1E6"/>
<path fill-rule="evenodd" clip-rule="evenodd" d="M69.4347 55.4662C66.7409 58.139 63.4441 59.4937 59.6367 59.4937C55.8302 59.4937 52.5337 58.1385 49.8395 55.4666C47.1453 52.7942 45.7793 49.524 45.7793 45.7464C45.7793 41.9697 47.1453 38.6995 49.8391 36.0271C52.5329 33.3547 55.8289 32 59.6367 32C63.4436 32 66.7401 33.3547 69.4343 36.0266C72.1285 38.6999 73.4941 41.9701 73.4941 45.7464C73.4941 49.524 72.1285 52.7938 69.4347 55.4662ZM83.4175 72.2058C83.6488 73.487 83.806 74.7001 83.8837 75.8123C83.9605 76.8992 83.9996 78.0335 84 79.1836C84 82.1642 83.0453 84.5766 81.1622 86.3542C79.3024 88.1099 76.8431 89 73.8512 89H46.1488C43.1569 89 40.6967 88.1095 38.8373 86.3542C36.9547 84.5753 36 82.1634 36 79.184C36 78.0392 36.0386 76.9057 36.115 75.8136C36.1927 74.6988 36.3498 73.4852 36.5812 72.2058C36.8147 70.9152 37.1154 69.6955 37.4748 68.5803C37.8471 67.4267 38.3527 66.2889 38.9773 65.1981C39.6252 64.0663 40.3877 63.0809 41.2423 62.2692C42.1373 61.4197 43.2324 60.7373 44.4975 60.2405C45.7585 59.7449 47.1561 59.4937 48.652 59.4937C49.2394 59.4937 49.8078 59.7327 50.9034 60.4412C51.5886 60.8841 52.3787 61.3892 53.2517 61.9426C54.0045 62.419 55.0255 62.8654 56.2852 63.269C57.5169 63.664 58.7657 63.8643 59.9987 63.8643C61.2317 63.8643 62.4809 63.664 63.7112 63.269C64.9723 62.8649 65.9933 62.4186 66.747 61.9422C67.6284 61.3835 68.418 60.8784 69.0931 60.4416C70.19 59.7332 70.758 59.4941 71.3453 59.4941C72.8408 59.4941 74.2388 59.7449 75.5003 60.24C76.7662 60.7377 77.861 61.4201 78.7551 62.2688C79.6101 63.08 80.3721 64.0659 81.0209 65.1981C81.646 66.2889 82.1516 67.4272 82.5234 68.5798C82.8833 69.695 83.184 70.9152 83.4175 72.2058Z" fill="#F2F2F7"/>
</svg>
