<svg xmlns="http://www.w3.org/2000/svg" width="26" height="26" viewBox="-1 -1 26 26">
  <g>
    <path d="M17.333 11.998a5.334 5.334 0 0 0-5.33-5.331 5.334 5.334 0 0 0-5.331 5.33 5.334 5.334 0 0 0 5.33 5.331 5.334 5.334 0 0 0 5.331-5.33zm-1.857 0a3.476 3.476 0 0 1-3.474 3.473 3.476 3.476 0 0 1-3.473-3.473 3.476 3.476 0 0 1 3.473-3.474 3.476 3.476 0 0 1 3.474 3.474z"/>
    <path d="M24 10.968a1.696 1.696 0 0 0-1.424-1.694L21.09 9.02a9.564 9.564 0 0 0-.555-1.34l.876-1.225a1.712 1.712 0 0 0-.186-2.212l-1.46-1.46a1.706 1.706 0 0 0-2.208-.185l-1.229.876a9.468 9.468 0 0 0-1.399-.576l-.247-1.466A1.715 1.715 0 0 0 12.988 0h-2.064c-.841 0-1.555.604-1.695 1.433L8.972 2.94a9.28 9.28 0 0 0-1.335.563l-1.214-.874a1.706 1.706 0 0 0-1-.32c-.459 0-.895.181-1.214.506L2.745 4.274a1.718 1.718 0 0 0-.186 2.211l.887 1.246c-.216.431-.398.88-.547 1.344l-1.466.248A1.714 1.714 0 0 0 0 11.017v2.064c0 .841.604 1.555 1.433 1.695l1.507.256c.152.458.34.905.563 1.336l-.87 1.21a1.712 1.712 0 0 0 .186 2.212l1.46 1.46a1.706 1.706 0 0 0 2.208.185l1.244-.886c.41.206.84.383 1.29.53l.248 1.487c.139.83.853 1.434 1.694 1.434h2.069c.841 0 1.555-.604 1.694-1.433l.252-1.487a9.55 9.55 0 0 0 1.34-.555l1.225.876a1.71 1.71 0 0 0 2.212-.185l1.46-1.461a1.718 1.718 0 0 0 .186-2.211l-.876-1.23c.224-.444.41-.891.556-1.34l1.485-.248A1.715 1.715 0 0 0 24 13.032v-2.064zm-1.843 1.947l.11-.019a.14.14 0 0 0-.11.1v-.081zm0-1.83l-.005 1.68v.15l-1.943.324a.925.925 0 0 0-.744.683 7.58 7.58 0 0 1-.824 1.983.93.93 0 0 0 .04 1.011l1.144 1.612-1.297 1.298-1.606-1.144a.929.929 0 0 0-1.01-.042 7.584 7.584 0 0 1-1.986.825.917.917 0 0 0-.682.747l-.328 1.94h-1.831l-.324-1.943a.925.925 0 0 0-.683-.744 7.878 7.878 0 0 1-1.943-.797.945.945 0 0 0-.466-.123.911.911 0 0 0-.541.174l-1.617 1.15-1.297-1.297 1.138-1.596a.939.939 0 0 0 .042-1.015 7.51 7.51 0 0 1-.834-1.981.94.94 0 0 0-.743-.682l-1.96-.333v-1.831l1.93-.324a.93.93 0 0 0 .749-.689 7.57 7.57 0 0 1 .809-1.988.921.921 0 0 0-.048-1.007l-1.152-1.62L5.443 4.21l1.596 1.138a.938.938 0 0 0 1.015.042 7.513 7.513 0 0 1 1.98-.834.94.94 0 0 0 .682-.743l.334-1.96h1.831l.324 1.93a.93.93 0 0 0 .689.749c.716.18 1.398.46 2.032.833a.93.93 0 0 0 1.01-.04l1.597-1.15 1.297 1.298-1.143 1.606a.929.929 0 0 0-.042 1.01c.367.616.643 1.283.825 1.986a.917.917 0 0 0 .747.682l1.94.328z"/>
  </g>
</svg>
