<svg width="16" height="16" viewBox="0 0 16 16" xmlns="http://www.w3.org/2000/svg">
<path d="M6.04819 4.16434C5.57591 4.205 5.20867 4.56766 5.14404 5.01755L4.44324 8.99691L4.42311 8.99259C4.37634 8.98191 4.32893 8.97298 4.28091 8.96591C3.19133 8.80744 2.17978 9.56904 2.02134 10.6807C1.84475 11.9106 2.78719 13 3.99566 13C4.9692 13 5.82297 12.2718 5.96706 11.2639L5.96721 11.2609L5.96731 11.2582C5.96733 11.258 5.96751 11.2579 5.96769 11.2579C5.96787 11.2579 5.96804 11.2578 5.96806 11.2576L6.13603 9.96683C6.26589 9.8295 6.35832 9.65387 6.39355 9.45381L6.98577 6.09101L10.757 5.76632L10.3072 8.32005C9.27849 8.24286 8.34095 8.98311 8.18878 10.0506C8.01219 11.2804 8.95463 12.3698 10.1631 12.3698C11.1366 12.3698 11.9904 11.6416 12.1345 10.6332C12.1346 10.6322 12.1346 10.6312 12.1346 10.6302L12.1347 10.6275C12.1347 10.6273 12.1349 10.6272 12.1351 10.6272C12.1353 10.6273 12.1355 10.6271 12.1355 10.6269L12.7177 6.16417L12.8643 5.33173C12.8822 5.22992 12.8841 5.12899 12.8716 5.03156C12.9279 4.89112 12.953 4.73575 12.9391 4.57474C12.8917 4.02449 12.4073 3.61683 11.857 3.66421L6.04819 4.16434Z" />
</svg>
