<svg width="16" height="16" viewBox="0 0 16 16" xmlns="http://www.w3.org/2000/svg">
<path d="M7.69231 3C8.44459 3 9.16279 3.12508 9.82015 3.35231C9.5442 3.77899 9.38461 4.28584 9.38461 4.82963C9.38461 6.34535 10.6244 7.57408 12.1538 7.57408C12.5807 7.57408 12.985 7.47837 13.346 7.30744C13.3715 7.49432 13.3846 7.68535 13.3846 7.87902C13.3846 10.5736 10.8361 12.758 7.69231 12.758C7.15456 12.758 6.63423 12.6941 6.14109 12.5747C5.49525 13.1446 4.41714 13.6172 2.90775 13.9922C2.84263 14.0083 2.77374 13.9993 2.71512 13.9669C2.58797 13.8965 2.54243 13.7373 2.61342 13.6113L2.72314 13.4136C3.20786 12.5273 3.49818 11.8106 3.59408 11.2634C2.60674 10.3871 2 9.1938 2 7.87902C2 5.18441 4.54853 3 7.69231 3ZM12.1538 3C13.1734 3 14 3.81915 14 4.82963C14 5.84011 13.1734 6.65926 12.1538 6.65926C11.1342 6.65926 10.3077 5.84011 10.3077 4.82963C10.3077 3.81915 11.1342 3 12.1538 3Z" />
</svg>
