<svg width="16" height="16" viewBox="0 0 16 16" xmlns="http://www.w3.org/2000/svg">
<path d="M13.7516 2.20193C14.068 2.4859 14.0846 2.96363 13.7889 3.26896L9.05531 8.15542L13.5088 12.7528C13.7995 13.0529 13.7831 13.5224 13.4722 13.8015C13.1613 14.0806 12.6736 14.0636 12.3828 13.7635L8.00277 9.24195L3.63187 13.754C3.33609 14.0594 2.83987 14.0767 2.52353 13.7927C2.20719 13.5087 2.19051 13.031 2.48629 12.7257L6.9319 8.13648L2.20751 3.25949C1.9168 2.95939 1.93318 2.48985 2.2441 2.21074C2.55503 1.93163 3.04275 1.94865 3.33346 2.24875L7.98443 7.04995L12.6433 2.24061C12.9391 1.93528 13.4353 1.91796 13.7516 2.20193Z" />
</svg>
