<svg width="16" height="16" viewBox="0 0 16 16" xmlns="http://www.w3.org/2000/svg">
<path d="M9.16515 3.05587C9.33985 3.09549 9.49443 3.15851 9.64643 3.25207C9.79843 3.34563 9.92155 3.44384 10.2438 3.76096L12.2268 5.71273C12.549 6.02984 12.6488 6.15102 12.7439 6.30062C12.8389 6.45022 12.903 6.60236 12.9432 6.7743C12.9835 6.94624 13 7.10137 13 7.54984V11.7735C13 12.5477 12.9181 12.8284 12.7643 13.1115C12.6105 13.3945 12.3848 13.6166 12.0972 13.768C11.8096 13.9194 11.5244 14 10.7377 14H5.26225C4.47562 14 4.19036 13.9194 3.90278 13.768C3.6152 13.6166 3.38951 13.3945 3.23571 13.1115C3.08191 12.8284 3 12.5477 3 11.7735V5.22653C3 4.45232 3.08191 4.17157 3.23571 3.88853C3.38951 3.60549 3.6152 3.38336 3.90278 3.23198C4.19036 3.08061 4.47562 3 5.26225 3H8.37717C8.83283 3 8.99045 3.01624 9.16515 3.05587ZM8.76471 4.11405C8.66724 4.11405 8.58824 4.19181 8.58824 4.28773V6.4737C8.58824 6.63357 8.71992 6.76317 8.88235 6.76317H11.1034C11.1502 6.76317 11.1951 6.74487 11.2282 6.7123C11.2971 6.64447 11.2971 6.5345 11.2282 6.46667L8.88949 4.16492C8.8564 4.13235 8.81151 4.11405 8.76471 4.11405Z" />
</svg>
