<svg width="16" height="16" viewBox="0 0 16 16" xmlns="http://www.w3.org/2000/svg">
<path d="M3.9375 4H12.0625C12.5796 4 13 3.55156 13 3C13 2.44844 12.5796 2 12.0625 2H3.9375C3.42042 2 3 2.44844 3 3C3 3.55156 3.42042 4 3.9375 4ZM12.7561 5.02649H3.2439C3.16049 5.02649 3.08 5.01351 3 5V10.091C3 10.5922 3.38293 11 3.85366 11H12.1463C12.6171 11 13 10.5922 13 10.091V5C12.92 5.01351 12.8395 5.02649 12.7561 5.02649ZM7.68601 12.5728V12.1739H8.94204V12.5724L11.3248 13.96C11.6156 14.1295 11.6991 14.4794 11.5107 14.7417C11.3901 14.909 11.1885 15 10.9825 15C10.8657 15 10.747 14.9706 10.6422 14.909L8.94204 13.9189V14.4348C8.94204 14.7468 8.66069 15 8.31403 15C7.96736 15 7.68601 14.7468 7.68601 14.4348V13.9193L5.9866 14.909C5.88046 14.9706 5.7624 15 5.64559 15C5.4396 15 5.238 14.909 5.11805 14.7417C4.92965 14.4794 5.01317 14.1295 5.30394 13.96L7.68601 12.5728Z" />
</svg>
