<svg width="16" height="16" viewBox="0 0 16 16" xmlns="http://www.w3.org/2000/svg">
<path d="M2.05265 10.2207L3.96052 10.2207V10.2214L8.28616 12.5459C8.92322 12.888 9.68235 12.5006 9.81608 11.8297C9.82968 11.7618 9.83687 11.691 9.83687 11.6178V4.05415C9.83687 3.25765 8.98763 2.75016 8.28633 3.12683L3.96069 5.45128L2.05265 5.45128C1.47119 5.45128 1 5.92247 1 6.50392V9.16807C1 9.74952 1.47119 10.2207 2.05265 10.2207ZM14.8419 5.00478L11.9723 6.16974C11.8762 6.20889 11.7765 6.22569 11.6789 6.22259C11.4023 6.21421 11.1436 6.04581 11.0326 5.77316C11.0175 5.73575 11.006 5.69777 10.9978 5.65957C10.9221 5.32205 11.0989 4.96898 11.4299 4.83424L14.2995 3.66929C14.668 3.5193 15.0885 3.69736 15.2385 4.06582C15.3885 4.43497 15.2104 4.85479 14.8419 5.00478ZM11.701 8.71677H14.798C15.1959 8.71677 15.5185 8.39351 15.5185 7.99628C15.5185 7.59837 15.1959 7.2758 14.798 7.2758H11.701C11.3031 7.2758 10.9806 7.59837 10.9806 7.99628C10.9806 8.39419 11.3031 8.71677 11.701 8.71677ZM11.4305 11.1576L14.3001 12.3226C14.6686 12.4726 15.0891 12.2945 15.2391 11.9261C15.3884 11.5576 15.211 11.1371 14.8425 10.9871L11.9729 9.82215C11.6045 9.67216 11.184 9.85022 11.034 10.2187C10.884 10.5878 11.0614 11.0077 11.4305 11.1576Z" />
</svg>
