<svg width="16" height="16" viewBox="0 0 16 16" xmlns="http://www.w3.org/2000/svg">
<path d="M12.9738 6.77843C12.908 6.56714 12.7284 6.41754 12.5168 6.39756L9.63005 6.12408L8.48921 3.33693C8.40498 3.13216 8.21333 3 8.00001 3C7.78668 3 7.59496 3.13216 7.51126 3.33693L6.37042 6.12408L3.48326 6.39756C3.27162 6.41794 3.0924 6.56753 3.02618 6.77843C2.96033 6.98973 3.02114 7.22149 3.18121 7.36798L5.36332 9.36463L4.71993 12.3217C4.67285 12.5391 4.75373 12.7639 4.92661 12.8944C5.01954 12.9648 5.12872 13 5.23828 13C5.33242 13 5.42665 12.9739 5.5108 12.9213L8.00001 11.3682L10.4888 12.9213C10.6713 13.0352 10.9009 13.0248 11.0734 12.8944C11.2463 12.7639 11.3272 12.5391 11.2801 12.3217L10.6367 9.36463L12.8188 7.36798C12.9788 7.22149 13.0397 6.99021 12.9738 6.77843Z" />
</svg>
