<svg width="16" height="16" viewBox="0 0 16 16" xmlns="http://www.w3.org/2000/svg">
<path d="M8 3C4.81818 3 2.10091 4.866 1 7.5C2.10091 10.134 4.81818 12 8 12C11.1818 12 13.8991 10.134 15 7.5C13.8991 4.866 11.1818 3 8 3ZM8 10.5C6.24364 10.5 4.81818 9.156 4.81818 7.5C4.81818 5.844 6.24364 4.5 8 4.5C9.75636 4.5 11.1818 5.844 11.1818 7.5C11.1818 9.156 9.75636 10.5 8 10.5ZM8 5.7C6.94364 5.7 6.09091 6.504 6.09091 7.5C6.09091 8.496 6.94364 9.3 8 9.3C9.05636 9.3 9.90909 8.496 9.90909 7.5C9.90909 6.504 9.05636 5.7 8 5.7Z" />
</svg>
