<svg width="48" height="48" viewBox="0 0 48 48" xmlns="http://www.w3.org/2000/svg">
<path fill-rule="evenodd" clip-rule="evenodd" d="M13.7103 18.9357C13.8588 18.9357 14.0027 18.9164 14.1397 18.8803C14.8216 21.0281 16.8508 22.5861 19.248 22.5861C21.6452 22.5861 23.6743 21.028 24.3563 18.8803C24.4933 18.9164 29.6372 18.9357 31.4286 18.9357H36.3387C37.2562 18.9357 38 18.2002 38 17.293C38 16.3858 37.2562 15.6504 36.3387 15.6504H31.4286C29.6372 15.6504 24.4933 15.6696 24.3563 15.7058C23.6743 13.558 21.6452 12 19.248 12C16.8508 12 14.8216 13.558 14.1397 15.7058C14.0027 15.6696 13.8588 15.6504 13.7103 15.6504H11.6613C10.7438 15.6504 10 16.3858 10 17.293C10 18.2002 10.7438 18.9357 11.6613 18.9357H13.7103ZM19.248 15.2853C18.1266 15.2853 17.2175 16.1842 17.2175 17.293C17.2175 18.4018 18.1266 19.3007 19.248 19.3007C20.3694 19.3007 21.2785 18.4018 21.2785 17.293C21.2785 16.1842 20.3694 15.2853 19.248 15.2853Z" />
<path fill-rule="evenodd" clip-rule="evenodd" d="M10 32.707C10 31.7998 10.7438 31.0643 11.6613 31.0643H24.0357C24.1842 31.0643 24.3282 31.0836 24.4652 31.1197C25.1471 28.9719 27.1763 27.4139 29.5734 27.4139C31.9706 27.4139 33.9998 28.9719 34.6817 31.1197C34.8187 31.0836 34.9627 31.0643 35.1112 31.0643H36.3387C37.2562 31.0643 38 31.7998 38 32.707C38 33.6142 37.2562 34.3496 36.3387 34.3496H35.1112C34.9627 34.3496 34.8187 34.3304 34.6817 34.2942C33.9998 36.442 31.9706 38 29.5734 38C27.1763 38 25.1471 36.442 24.4652 34.2942C24.3282 34.3304 24.1842 34.3496 24.0357 34.3496H11.6613C10.7438 34.3496 10 33.6142 10 32.707ZM27.5429 32.707C27.5429 31.5982 28.452 30.6993 29.5734 30.6993C30.6949 30.6993 31.6039 31.5982 31.6039 32.707C31.6039 33.8158 30.6949 34.7147 29.5734 34.7147C28.452 34.7147 27.5429 33.8158 27.5429 32.707Z" />
</svg>
