<svg width="48" height="48" viewBox="0 0 48 48" xmlns="http://www.w3.org/2000/svg">
<path d="M23.9924 19.6297L21.7815 17.5279C20.5993 16.464 19.368 16 18.0281 16C15.1983 16 13 18.2385 13 20.851C13 22.4633 13.2613 23.3603 14.0801 24.4602C15.0787 25.8015 16.9169 27.4432 20.486 30.2096L24.0002 32.8995L27.0595 30.5608L28.3501 29.5573C31.5381 27.0524 33.1582 25.5414 34.0316 24.3061C34.7514 23.2879 35 22.4137 35 20.851C35 18.2473 32.8165 16.0151 30.0005 16.0001L29.6887 16.0068C28.4331 16.0673 27.2865 16.5377 26.2025 17.527L23.9924 19.6297ZM24.1554 15.3338C25.7345 13.8834 27.5567 13.0959 29.5885 13.0082L29.9719 13C34.392 13 38 16.5158 38 20.851C38 24.9141 36.5505 26.93 30.1977 31.9209L28.8912 32.9367L25.5814 35.4669C24.6516 36.1777 23.3484 36.1777 22.4186 35.4669L18.6554 32.5863C11.5783 27.1014 10 25.0907 10 20.851C10 16.5158 13.608 13 18.0281 13C20.1844 13 22.1276 13.7911 23.8212 15.3276L23.9916 15.4897L24.1554 15.3338Z" />
</svg>
