<svg width="48" height="48" viewBox="0 0 48 48" xmlns="http://www.w3.org/2000/svg">
<path d="M10 16.5C10 15.6716 10.6716 15 11.5 15H36.5C37.3284 15 38 15.6716 38 16.5C38 17.3284 37.3284 18 36.5 18H11.5C10.6716 18 10 17.3284 10 16.5ZM10 24.5C10 23.6716 10.6716 23 11.5 23H36.5C37.3284 23 38 23.6716 38 24.5C38 25.3284 37.3284 26 36.5 26H11.5C10.6716 26 10 25.3284 10 24.5ZM20.5 31C19.6716 31 19 31.6716 19 32.5C19 33.3284 19.6716 34 20.5 34H36.5C37.3284 34 38 33.3284 38 32.5C38 31.6716 37.3284 31 36.5 31H20.5Z" />
</svg>
