<svg width="48" height="48" viewBox="0 0 48 48" xmlns="http://www.w3.org/2000/svg">
<path d="M28.7202 26.2416C31.6587 22.1734 30.6759 16.5403 26.5264 13.66C22.3769 10.7798 16.6311 11.7426 13.6932 15.8114C10.7554 19.8796 11.7375 25.512 15.8877 28.3923C18.8494 30.448 22.7651 30.6063 25.889 28.7977L32.6766 35.4122C33.4095 36.1686 34.6289 36.1989 35.4004 35.4804C36.1719 34.7625 36.2028 33.5671 35.4706 32.8107C35.4474 32.7866 35.425 32.7646 35.4004 32.7419L28.7202 26.2416ZM21.2011 26.8582C17.9221 26.8589 15.2636 24.2546 15.2615 21.0399C15.2608 17.8252 17.9171 15.2189 21.1969 15.2175C24.4717 15.2161 27.1287 17.8162 27.1351 21.0268C27.1407 24.2423 24.4857 26.8527 21.2053 26.8582C21.2039 26.8582 21.2032 26.8582 21.2011 26.8582Z" />
</svg>
