<svg width="48" height="48" viewBox="0 0 48 48" xmlns="http://www.w3.org/2000/svg">
<path d="M23.1849 13.8015L20.292 20.1472C20.2569 20.2241 20.1695 20.2849 20.0914 20.2948L14.0146 21.0644C12.9555 21.1985 12.7335 21.8961 13.5355 22.6204L18.0725 26.718C18.1328 26.7724 18.1639 26.8764 18.1461 26.954L16.5621 33.8505C16.3208 34.9007 16.8417 35.2567 17.7272 34.6378L23.8888 30.3317C23.9499 30.289 24.05 30.2887 24.1115 30.3317L30.2719 34.6378C31.1623 35.2602 31.6788 34.9042 31.4368 33.8505L29.8528 26.954C29.8336 26.8706 29.8679 26.7707 29.9263 26.718L34.4634 22.6204C35.2633 21.898 35.0509 21.1994 33.9842 21.0644L27.9075 20.2948C27.8269 20.2846 27.7395 20.2188 27.7068 20.1472L24.8102 13.8015C24.3619 12.8192 23.6335 12.8176 23.1849 13.8015ZM34.2412 19.0164C37.0583 19.3731 37.942 22.2544 35.8368 24.1556L32.0948 27.5351L33.4387 33.3863C34.1038 36.282 31.5303 38.032 29.0986 36.3323L24.0001 32.7684L18.9004 36.3324C16.4743 38.0279 13.8957 36.2793 14.5602 33.3863L15.9041 27.5351L12.162 24.1556C10.0537 22.2515 10.9495 19.372 13.7577 19.0164L18.8412 18.3726L21.3171 12.9419C22.4978 10.3518 25.4968 10.3539 26.6777 12.941L29.157 18.3725L34.2412 19.0164Z" />
<path d="M23.9973 11.4C23.1312 11.3999 22.2161 11.9341 21.681 13.1078L19.1127 18.7414L13.808 19.4132C12.5383 19.574 11.7571 20.2907 11.4981 21.124C11.2391 21.9578 11.4755 22.9966 12.4301 23.8587L16.3465 27.3957L14.95 33.4758C14.648 34.7906 15.0908 35.7706 15.7959 36.2491C16.5006 36.7272 17.5699 36.7742 18.6713 36.0045L24.0001 32.2804L29.3278 36.0044C30.4323 36.7765 31.5016 36.7296 32.2052 36.2517C32.9094 35.7734 33.3513 34.7926 33.0488 33.4758L31.6523 27.3957L35.5687 23.8587C36.5221 22.9978 36.7605 21.9589 36.5027 21.1249C36.2452 20.292 35.4652 19.5746 34.1909 19.4132L28.8857 18.7413L26.3138 13.1071C25.7787 11.9347 24.8635 11.4001 23.9973 11.4ZM23.9974 10.6C25.221 10.6001 26.3958 11.3601 27.0416 12.7749L29.4283 18.0036L34.2914 18.6195C35.8342 18.8149 36.9047 19.7165 37.267 20.8887C37.6291 22.0598 37.2568 23.4122 36.1049 24.4525L32.5372 27.6745L33.8285 33.2968C34.1912 34.8757 33.6789 36.2178 32.6547 36.9135C31.6298 37.6096 30.1966 37.5878 28.8694 36.6601L24 33.2564L19.1295 36.6603C17.8047 37.5861 16.3718 37.6066 15.3467 36.9111C14.3221 36.2158 13.8078 34.875 14.1703 33.2968L15.4617 27.6745L11.8939 24.4525C10.7402 23.4105 10.3704 22.0575 10.7342 20.8866C11.0981 19.7153 12.1689 18.8144 13.7074 18.6195L18.5698 18.0037L20.9531 12.7759C21.5988 11.3596 22.7736 10.5998 23.9974 10.6ZM23.9979 12.6642C24.5346 12.6646 24.9304 13.1014 25.1741 13.6354L28.0374 19.908L34.0345 20.6675C34.6165 20.7412 35.1486 20.9911 35.3062 21.5049C35.4629 22.016 35.167 22.524 34.7315 22.9173L30.263 26.9529L31.8267 33.7609C31.8941 34.0546 31.9164 34.3301 31.8768 34.5706C31.8369 34.8129 31.7269 35.0518 31.5039 35.2034C31.2806 35.3553 31.0176 35.3694 30.777 35.316C30.5386 35.2632 30.2909 35.1391 30.0428 34.9657L24.0002 30.7419L17.9564 34.9657C17.7091 35.1385 17.4618 35.2619 17.2235 35.3143C16.9828 35.3671 16.7205 35.3523 16.4976 35.2011C16.275 35.0501 16.164 34.8122 16.1233 34.5698C16.083 34.3294 16.1048 34.0542 16.1722 33.7609L17.7359 26.9529L13.2674 22.9173C12.8301 22.5223 12.5362 22.0134 12.6952 21.5023C12.8544 20.9904 13.3853 20.7409 13.9644 20.6675L19.9614 19.908L22.821 13.6355C23.0648 13.1007 23.4609 12.6638 23.9979 12.6642ZM23.9974 13.4642C23.946 13.4641 23.7536 13.5184 23.5489 13.9674L20.6559 20.3131C20.5613 20.5207 20.3523 20.6649 20.1416 20.6916L14.0649 21.4612C13.5847 21.522 13.4751 21.6884 13.4591 21.7399C13.4428 21.7922 13.4389 21.9942 13.8036 22.3236L18.3406 26.4211C18.4357 26.507 18.4916 26.6146 18.5209 26.7097C18.5501 26.8048 18.5637 26.9227 18.5359 27.0435L16.9519 33.94C16.8986 34.1719 16.8951 34.335 16.9123 34.4374C16.9236 34.5045 16.9404 34.5309 16.9468 34.5386C16.9563 34.5416 16.9867 34.5472 17.0519 34.5329C17.1527 34.5107 17.3025 34.4466 17.4981 34.31L23.6597 30.0038C23.7703 29.9265 23.8948 29.8996 23.9996 29.8995C24.1045 29.8994 24.2295 29.9261 24.3407 30.0038L30.5011 34.31C30.6982 34.4478 30.8489 34.5126 30.9502 34.535C31.0135 34.5491 31.0437 34.5443 31.0538 34.5414C31.0604 34.5331 31.0766 34.5063 31.0874 34.4405C31.1044 34.3373 31.1005 34.1731 31.047 33.94L29.4629 27.0435C29.4106 26.8157 29.4945 26.5689 29.6582 26.4211L34.1953 22.3236C34.5597 21.9945 34.5575 21.792 34.5413 21.7395C34.526 21.6895 34.4186 21.5226 33.934 21.4612L27.8572 20.6916C27.734 20.676 27.6288 20.6229 27.5511 20.5654C27.4736 20.508 27.3934 20.4238 27.3429 20.3133L24.4464 13.9676C24.2417 13.5193 24.0492 13.4642 23.9974 13.4642ZM31.051 34.5445L31.0522 34.5433ZM16.9433 34.5372L16.9451 34.538Z" />
</svg>
