<svg width="48" height="48" viewBox="0 0 48 48" xmlns="http://www.w3.org/2000/svg">
<path d="M31.8949 17.5483C31.8949 15.6693 30.3734 14.1477 28.4943 14.1477C26.6153 14.1477 25.0938 15.6693 25.0938 17.5483C25.0938 19.4273 26.6153 20.9489 28.4943 20.9489C30.3734 20.9489 31.8949 19.4273 31.8949 17.5483ZM34.0426 17.5483C34.0426 20.6135 31.5595 23.0966 28.4943 23.0966C25.4291 23.0966 22.946 20.6135 22.946 17.5483C22.946 14.4831 25.4291 12 28.4943 12C31.5595 12 34.0426 14.4831 34.0426 17.5483ZM21.2159 33.0511C21.2159 33.9685 21.1076 33.8523 21.616 33.8523H35.3727C35.881 33.8523 35.7727 33.9685 35.7727 33.0511C35.7727 30.7929 32.4578 26.4375 28.4943 26.4375C24.5308 26.4375 21.2159 30.7929 21.2159 33.0511ZM28.4943 24.2898C33.5382 24.2898 37.9205 29.0817 37.9205 33.0511C37.9205 35.122 37.1025 36 35.3727 36H21.616C19.8862 36 19.0682 35.122 19.0682 33.0511C19.0682 29.0817 23.4505 24.2898 28.4943 24.2898ZM15.3693 15.8182C15.9624 15.8182 16.4432 16.299 16.4432 16.892L16.442 20.1136L19.6648 20.1136C20.2579 20.1136 20.7386 20.5944 20.7386 21.1875C20.7386 21.7806 20.2579 22.2614 19.6648 22.2614H16.442L16.4432 25.483C16.4432 26.076 15.9624 26.5568 15.3693 26.5568C14.7762 26.5568 14.2955 26.076 14.2955 25.483L14.2943 22.2614H11.0739C10.4808 22.2614 10 21.7806 10 21.1875C10 20.5944 10.4808 20.1136 11.0739 20.1136L14.2943 20.1136L14.2955 16.892C14.2955 16.299 14.7762 15.8182 15.3693 15.8182Z" />
<path d="M28.4943 12.25C25.5672 12.25 23.196 14.6212 23.196 17.5483C23.196 20.4754 25.5672 22.8466 28.4943 22.8466C31.4215 22.8466 33.7926 20.4754 33.7926 17.5483C33.7926 14.6212 31.4215 12.25 28.4943 12.25ZM22.696 17.5483C22.696 14.345 25.291 11.75 28.4943 11.75C31.6976 11.75 34.2926 14.345 34.2926 17.5483C34.2926 20.7516 31.6976 23.3466 28.4943 23.3466C25.291 23.3466 22.696 20.7516 22.696 17.5483ZM24.8438 17.5483C24.8438 15.5312 26.4772 13.8977 28.4943 13.8977C30.5114 13.8977 32.1449 15.5312 32.1449 17.5483C32.1449 19.5654 30.5114 21.1989 28.4943 21.1989C26.4772 21.1989 24.8438 19.5654 24.8438 17.5483ZM28.4943 14.3977C26.7533 14.3977 25.3438 15.8073 25.3438 17.5483C25.3438 19.2893 26.7533 20.6989 28.4943 20.6989C30.2353 20.6989 31.6449 19.2893 31.6449 17.5483C31.6449 15.8073 30.2353 14.3977 28.4943 14.3977ZM15.3693 16.0682C14.9143 16.0682 14.5455 16.437 14.5455 16.892L14.5442 20.3636L11.0739 20.3636C10.6189 20.3636 10.25 20.7325 10.25 21.1875C10.25 21.6425 10.6189 22.0114 11.0739 22.0114H14.5442L14.5455 25.4829C14.5455 25.9379 14.9143 26.3068 15.3693 26.3068C15.8243 26.3068 16.1931 25.938 16.1932 25.483L16.1919 22.0114H19.6648C20.1198 22.0114 20.4886 21.6425 20.4886 21.1875C20.4886 20.7325 20.1198 20.3636 19.6648 20.3636L16.1919 20.3636L16.1932 16.892C16.1931 16.4371 15.8243 16.0682 15.3693 16.0682ZM14.0455 16.892C14.0455 16.1608 14.6382 15.5682 15.3693 15.5682C16.1005 15.5682 16.6932 16.1609 16.6932 16.892L16.6921 19.8636L19.6648 19.8636C20.3959 19.8636 20.9886 20.4564 20.9886 21.1875C20.9886 21.9187 20.3959 22.5114 19.6648 22.5114H16.6921L16.6932 25.4829C16.6932 26.214 16.1005 26.8068 15.3693 26.8068C14.6382 26.8068 14.0455 26.2142 14.0455 25.4831L14.0444 22.5114H11.0739C10.3427 22.5114 9.75 21.9187 9.75 21.1875C9.75 20.4564 10.3427 19.8636 11.0739 19.8636L14.0444 19.8636L14.0455 16.892ZM22.0649 27.3603C20.3717 29.0223 19.3182 31.1521 19.3182 33.0511C19.3182 34.0616 19.5191 34.7255 19.8811 35.1371C20.2367 35.5413 20.7909 35.75 21.616 35.75H35.3727C36.1978 35.75 36.752 35.5413 37.1075 35.1371C37.4695 34.7255 37.6705 34.0616 37.6705 33.0511C37.6705 31.1521 36.617 29.0223 34.9237 27.3603C33.2336 25.7014 30.937 24.5398 28.4943 24.5398C26.0516 24.5398 23.7551 25.7014 22.0649 27.3603ZM21.7147 27.0035C23.4767 25.2741 25.8932 24.0398 28.4943 24.0398C31.0955 24.0398 33.512 25.2741 35.274 27.0035C37.0328 28.7298 38.1705 30.9807 38.1705 33.0511C38.1705 34.1116 37.9624 34.9221 37.483 35.4673C36.9971 36.0197 36.2774 36.25 35.3727 36.25H21.616C20.7113 36.25 19.9916 36.0197 19.5057 35.4673C19.0262 34.9221 18.8182 34.1116 18.8182 33.0511C18.8182 30.9807 19.9559 28.7298 21.7147 27.0035ZM23.189 28.7238C24.5409 27.3239 26.4212 26.1875 28.4943 26.1875C30.5674 26.1875 32.4477 27.3239 33.7997 28.7238C34.4778 29.426 35.0307 30.2019 35.4152 30.9509C35.7978 31.6959 36.0227 32.432 36.0227 33.0511C36.0227 33.2125 36.0261 33.3382 36.0289 33.4422C36.03 33.4843 36.031 33.5228 36.0317 33.5587C36.0328 33.6184 36.033 33.6751 36.0296 33.7248C36.0264 33.7718 36.0189 33.8336 35.9933 33.8937C35.9633 33.9641 35.9113 34.0256 35.8352 34.0639C35.7705 34.0965 35.7054 34.1034 35.6636 34.1057C35.6201 34.1081 35.5713 34.1067 35.5282 34.1054C35.4817 34.104 35.4317 34.1023 35.3727 34.1023H21.616C21.5613 34.1023 21.5145 34.1037 21.4709 34.105L21.4604 34.1054C21.4174 34.1067 21.3685 34.1081 21.325 34.1057C21.2832 34.1034 21.2181 34.0965 21.1535 34.0639C21.0774 34.0256 21.0253 33.9641 20.9953 33.8937C20.9697 33.8336 20.9622 33.7718 20.959 33.7248C20.9556 33.6751 20.9559 33.6184 20.957 33.5587C20.9576 33.5228 20.9587 33.4842 20.9598 33.4422C20.9626 33.3382 20.9659 33.2125 20.9659 33.0511C20.9659 32.432 21.1909 31.6959 21.5734 30.9509C21.9579 30.2019 22.5109 29.426 23.189 28.7238ZM22.0182 31.1793C21.6553 31.886 21.4659 32.5412 21.4659 33.0511C21.4659 33.2196 21.4623 33.3571 21.4595 33.4625C21.4584 33.5022 21.4575 33.5374 21.4569 33.568C21.4566 33.5815 21.4565 33.5939 21.4564 33.6053C21.4995 33.6039 21.5534 33.6023 21.616 33.6023H35.3727C35.4352 33.6023 35.4891 33.6039 35.5323 33.6053C35.5322 33.5939 35.532 33.5815 35.5318 33.568C35.5312 33.5374 35.5302 33.5022 35.5292 33.4624C35.5264 33.357 35.5227 33.2196 35.5227 33.0511C35.5227 32.5412 35.3333 31.886 34.9705 31.1793C34.6096 30.4764 34.0861 29.7401 33.44 29.0712C32.1436 27.7288 30.3847 26.6875 28.4943 26.6875C26.6039 26.6875 24.845 27.7288 23.5486 29.0712C22.9026 29.7401 22.3791 30.4764 22.0182 31.1793Z" />
</svg>
